# xmcd
#
# Track frame offsets: 
#        150
#        11277
#        20465
#        32977
#        42560
#        56317
#        65605
#        75849
#        85266
#        98082
#        108122
#        120932
#        134547
#        147114
#        159094
#        170770
#        184444
#        196570
#        212188
#        222923
#        232793
#        242937
#        253063
#        263616
#        275694
#
# Disc length: 3828 seconds
#
# Revision: 0
# Processed by: cddbd v1.5.2PL0 Copyright (c) Steve Scherf et al.
# Submitted via: ExactAudioCopy v1.0b1
#
DISCID=500ef219
DTITLE=Various Artist - Country Bullets [CD2]
DYEAR=2012
DGENRE=Country
TTITLE0=Reno and Smiley - Don't Let Your Sweet Love Die
TTITLE1=Jimmy Newman - Everybody's Dying For Love
TTITLE2=Rose Maddox - Conscience I'm Guilty
TTITLE3=The Wilburn Brothers - Blue Blue Day
TTITLE4=Jimmy Dean - Big John
TTITLE5=Jim Reeves - What Would You Do
TTITLE6=Rose Maddox - I Want To Live Again
TTITLE7=George Jones and Margie Singleton - Did I Ever Tell You
TTITLE8=Ernest Ashworth - Forever Gone
TTITLE9=Don Gibson - What About Me
TTITLE10=Leon McCauliffe - Cozy In
TTITLE11=Ernest Tubb - Thoughts Of A Fool
TTITLE12=Marty Robbins - It's Your World
TTITLE13=Joe South - You're The Reason
TTITLE14=Frankie Miller - Black Land Farmer
TTITLE15=George Jones and Margie Singleton - Family Bible
TTITLE16=Eddy Arnold - One Grain Of Sand
TTITLE17=Marty Robbins - Jimmy Martinez
TTITLE18=Wynn Stewart - Big Big Love
TTITLE19=Claude Gray - I'll Just Have A Cup Of Coffee
TTITLE20=Ray Sanders - Lonelyville
TTITLE21=Faron Young - Forget The Past
TTITLE22=Ralph Emery - Hello Fool
TTITLE23=Kitty Wells - There Must Be Another Way To Live
TTITLE24=Buck Owens and Rose Maddox - Loose Talk
EXTD=
EXTT0=
EXTT1=
EXTT2=
EXTT3=
EXTT4=
EXTT5=
EXTT6=
EXTT7=
EXTT8=
EXTT9=
EXTT10=
EXTT11=
EXTT12=
EXTT13=
EXTT14=
EXTT15=
EXTT16=
EXTT17=
EXTT18=
EXTT19=
EXTT20=
EXTT21=
EXTT22=
EXTT23=
EXTT24=
PLAYORDER=
